# xmcd
#
# Track frame offsets:
#	150
#	12027
#	21426
#	37118
#	53914
#	67505
#	85355
#	107291
#	127376
#	138546
#	154211
#	170549
#	185897
#	202597
#	222149
#	240971
#	255968
#	273948
#	288018
#	304356
#	322481
#	336898
#
# Disc length: 4789 seconds
# Revision: 0
# Processed by: cddbd v1.5.2PL0 Copyright (c) Steve Scherf et al.
# Submitted via: dBpowerAMP V12.0
#
DISCID=3c12b316
DTITLE=Anthony Bertorelli - It's Christmas Again
DYEAR=2008
DGENRE=Christmas
TTITLE0=Silver Bells
TTITLE1=Jingle Bells
TTITLE2=Little Annie's Christmas Wish
TTITLE3=Mistletoe and Wine
TTITLE4=God Rest Ye Merry, Gentlemen
TTITLE5=Do You Hear What I Hear
TTITLE6=The Christmas Shoes
TTITLE7=There's A New Kid In Town
TTITLE8=White Christmas
TTITLE9=Let It Snow
TTITLE10=Please Come Home For Christmas
TTITLE11=Another Year Has Gone By
TTITLE12=Christmas Again
TTITLE13=The Little Drummer Boy
TTITLE14=The Christmas Song
TTITLE15=Angels In The Snow
TTITLE16=Christmas Time Is Here
TTITLE17=Merry Christmas, Baby
TTITLE18=One Bright Star
TTITLE19=Reason For The Season
TTITLE20=Birthday Of A King
TTITLE21=O Holy Night
EXTD=
EXTT0=
EXTT1=
EXTT2=
EXTT3=
EXTT4=
EXTT5=
EXTT6=
EXTT7=
EXTT8=
EXTT9=
EXTT10=
EXTT11=
EXTT12=
EXTT13=
EXTT14=
EXTT15=
EXTT16=
EXTT17=
EXTT18=
EXTT19=
EXTT20=
EXTT21=
PLAYORDER=
